<?xml version="1.0" standalone="no"?>
 <!DOCTYPE svg PUBLIC "-//W3C//DTD SVG 1.1//EN" 
 "http://www.w3.org/Graphics/SVG/1.1/DTD/svg11.dtd"> 
<svg xmlns="http://www.w3.org/2000/svg" version="1.1" 
    width="29.7002cm" height="21.0007cm" viewBox="0 0 116930 82680 ">
<title>SVG Picture created as 8knobs-F.Fab.svg date 2019/06/16 19:18:56 </title>
  <desc>Picture generated by PCBNEW </desc>
<g style="fill:#000000; fill-opacity:1;stroke:#000000; stroke-opacity:1;
stroke-linecap:round; stroke-linejoin:round; "
 transform="translate(0 0) scale(1 1)">
</g>
<g style="fill:#000000; fill-opacity:0.0; 
stroke:#000000; stroke-width:-0.000393701; stroke-opacity:1; 
stroke-linecap:round; stroke-linejoin:round;">
</g>
<g style="fill:#000000; fill-opacity:0.0; 
stroke:#000000; stroke-width:39.3701; stroke-opacity:1; 
stroke-linecap:round; stroke-linejoin:round;">
</g>
<g style="fill:#000000; fill-opacity:0.0; 
stroke:#000000; stroke-width:59.0551; stroke-opacity:1; 
stroke-linecap:round; stroke-linejoin:round;">
<rect x="69685.9" y="65357.2" width="42519.7" height="12598.4" rx="0" />
</g>
<g style="fill:#000000; fill-opacity:0.0; 
stroke:#000000; stroke-width:39.3701; stroke-opacity:1; 
stroke-linecap:round; stroke-linejoin:round;">
</g>
<g style="fill:#000000; fill-opacity:0.0; 
stroke:#000000; stroke-width:59.0551; stroke-opacity:1; 
stroke-linecap:round; stroke-linejoin:round;">
<rect x="3937.01" y="3937.01" width="109056" height="74806" rx="0" />
</g>
<g style="fill:#000000; fill-opacity:0.0; 
stroke:#000000; stroke-width:39.3701; stroke-opacity:1; 
stroke-linecap:round; stroke-linejoin:round;">
</g>
<g style="fill:#000000; fill-opacity:0.0; 
stroke:#000000; stroke-width:59.0551; stroke-opacity:1; 
stroke-linecap:round; stroke-linejoin:round;">
<rect x="4724.41" y="4724.41" width="107481" height="73231.2" rx="0" />
</g>
<g style="fill:#000000; fill-opacity:0.0; 
stroke:#000000; stroke-width:39.3701; stroke-opacity:1; 
stroke-linecap:round; stroke-linejoin:round;">
</g>
<g style="fill:#000000; fill-opacity:0.0; 
stroke:#000000; stroke-width:59.0551; stroke-opacity:1; 
stroke-linecap:round; stroke-linejoin:round;">
<path d="M23622 4724
L23622 3937
" />
</g>
<g style="fill:#000000; fill-opacity:0.0; 
stroke:#000000; stroke-width:39.3701; stroke-opacity:1; 
stroke-linecap:round; stroke-linejoin:round;">
</g>
<g style="fill:#000000; fill-opacity:0.0; 
stroke:#000000; stroke-width:59.0551; stroke-opacity:1; 
stroke-linecap:round; stroke-linejoin:round;">
<path d="M43307 4724
L43307 3937
" />
</g>
<g style="fill:#000000; fill-opacity:0.0; 
stroke:#000000; stroke-width:39.3701; stroke-opacity:1; 
stroke-linecap:round; stroke-linejoin:round;">
</g>
<g style="fill:#000000; fill-opacity:0.0; 
stroke:#000000; stroke-width:59.0551; stroke-opacity:1; 
stroke-linecap:round; stroke-linejoin:round;">
<path d="M62992 4724
L62992 3937
" />
</g>
<g style="fill:#000000; fill-opacity:0.0; 
stroke:#000000; stroke-width:39.3701; stroke-opacity:1; 
stroke-linecap:round; stroke-linejoin:round;">
</g>
<g style="fill:#000000; fill-opacity:0.0; 
stroke:#000000; stroke-width:59.0551; stroke-opacity:1; 
stroke-linecap:round; stroke-linejoin:round;">
<path d="M82677 4724
L82677 3937
" />
</g>
<g style="fill:#000000; fill-opacity:0.0; 
stroke:#000000; stroke-width:39.3701; stroke-opacity:1; 
stroke-linecap:round; stroke-linejoin:round;">
</g>
<g style="fill:#000000; fill-opacity:0.0; 
stroke:#000000; stroke-width:59.0551; stroke-opacity:1; 
stroke-linecap:round; stroke-linejoin:round;">
<path d="M102362 4724
L102362 3937
" />
</g>
<g style="fill:#000000; fill-opacity:0.0; 
stroke:#000000; stroke-width:39.3701; stroke-opacity:1; 
stroke-linecap:round; stroke-linejoin:round;">
</g>
<g style="fill:#000000; fill-opacity:0.0; 
stroke:#000000; stroke-width:59.0551; stroke-opacity:1; 
stroke-linecap:round; stroke-linejoin:round;">
<path d="M14199 4562
L13906 4562
" />
<path d="M14052 4562
L14052 4050
L14004 4123
L13955 4172
L13906 4196
" />
</g>
<g style="fill:#000000; fill-opacity:0.0; 
stroke:#000000; stroke-width:39.3701; stroke-opacity:1; 
stroke-linecap:round; stroke-linejoin:round;">
</g>
<g style="fill:#000000; fill-opacity:0.0; 
stroke:#000000; stroke-width:59.0551; stroke-opacity:1; 
stroke-linecap:round; stroke-linejoin:round;">
<path d="M33591 4099
L33615 4074
L33664 4050
L33786 4050
L33835 4074
L33859 4099
L33884 4147
L33884 4196
L33859 4269
L33567 4562
L33884 4562
" />
</g>
<g style="fill:#000000; fill-opacity:0.0; 
stroke:#000000; stroke-width:39.3701; stroke-opacity:1; 
stroke-linecap:round; stroke-linejoin:round;">
</g>
<g style="fill:#000000; fill-opacity:0.0; 
stroke:#000000; stroke-width:59.0551; stroke-opacity:1; 
stroke-linecap:round; stroke-linejoin:round;">
<path d="M53252 4050
L53569 4050
L53398 4245
L53471 4245
L53520 4269
L53544 4294
L53569 4342
L53569 4464
L53544 4513
L53520 4537
L53471 4562
L53325 4562
L53276 4537
L53252 4513
" />
</g>
<g style="fill:#000000; fill-opacity:0.0; 
stroke:#000000; stroke-width:39.3701; stroke-opacity:1; 
stroke-linecap:round; stroke-linejoin:round;">
</g>
<g style="fill:#000000; fill-opacity:0.0; 
stroke:#000000; stroke-width:59.0551; stroke-opacity:1; 
stroke-linecap:round; stroke-linejoin:round;">
<path d="M73205 4221
L73205 4562
" />
<path d="M73083 4026
L72961 4391
L73278 4391
" />
</g>
<g style="fill:#000000; fill-opacity:0.0; 
stroke:#000000; stroke-width:39.3701; stroke-opacity:1; 
stroke-linecap:round; stroke-linejoin:round;">
</g>
<g style="fill:#000000; fill-opacity:0.0; 
stroke:#000000; stroke-width:59.0551; stroke-opacity:1; 
stroke-linecap:round; stroke-linejoin:round;">
<path d="M92914 4050
L92671 4050
L92646 4294
L92671 4269
L92719 4245
L92841 4245
L92890 4269
L92914 4294
L92939 4342
L92939 4464
L92914 4513
L92890 4537
L92841 4562
L92719 4562
L92671 4537
L92646 4513
" />
</g>
<g style="fill:#000000; fill-opacity:0.0; 
stroke:#000000; stroke-width:39.3701; stroke-opacity:1; 
stroke-linecap:round; stroke-linejoin:round;">
</g>
<g style="fill:#000000; fill-opacity:0.0; 
stroke:#000000; stroke-width:59.0551; stroke-opacity:1; 
stroke-linecap:round; stroke-linejoin:round;">
<path d="M112575 4050
L112477 4050
L112429 4074
L112404 4099
L112356 4172
L112331 4269
L112331 4464
L112356 4513
L112380 4537
L112429 4562
L112526 4562
L112575 4537
L112599 4513
L112624 4464
L112624 4342
L112599 4294
L112575 4269
L112526 4245
L112429 4245
L112380 4269
L112356 4294
L112331 4342
" />
</g>
<g style="fill:#000000; fill-opacity:0.0; 
stroke:#000000; stroke-width:39.3701; stroke-opacity:1; 
stroke-linecap:round; stroke-linejoin:round;">
</g>
<g style="fill:#000000; fill-opacity:0.0; 
stroke:#000000; stroke-width:59.0551; stroke-opacity:1; 
stroke-linecap:round; stroke-linejoin:round;">
<path d="M23622 77955
L23622 78742
" />
</g>
<g style="fill:#000000; fill-opacity:0.0; 
stroke:#000000; stroke-width:39.3701; stroke-opacity:1; 
stroke-linecap:round; stroke-linejoin:round;">
</g>
<g style="fill:#000000; fill-opacity:0.0; 
stroke:#000000; stroke-width:59.0551; stroke-opacity:1; 
stroke-linecap:round; stroke-linejoin:round;">
<path d="M43307 77955
L43307 78742
" />
</g>
<g style="fill:#000000; fill-opacity:0.0; 
stroke:#000000; stroke-width:39.3701; stroke-opacity:1; 
stroke-linecap:round; stroke-linejoin:round;">
</g>
<g style="fill:#000000; fill-opacity:0.0; 
stroke:#000000; stroke-width:59.0551; stroke-opacity:1; 
stroke-linecap:round; stroke-linejoin:round;">
<path d="M62992 77955
L62992 78742
" />
</g>
<g style="fill:#000000; fill-opacity:0.0; 
stroke:#000000; stroke-width:39.3701; stroke-opacity:1; 
stroke-linecap:round; stroke-linejoin:round;">
</g>
<g style="fill:#000000; fill-opacity:0.0; 
stroke:#000000; stroke-width:59.0551; stroke-opacity:1; 
stroke-linecap:round; stroke-linejoin:round;">
<path d="M82677 77955
L82677 78742
" />
</g>
<g style="fill:#000000; fill-opacity:0.0; 
stroke:#000000; stroke-width:39.3701; stroke-opacity:1; 
stroke-linecap:round; stroke-linejoin:round;">
</g>
<g style="fill:#000000; fill-opacity:0.0; 
stroke:#000000; stroke-width:59.0551; stroke-opacity:1; 
stroke-linecap:round; stroke-linejoin:round;">
<path d="M102362 77955
L102362 78742
" />
</g>
<g style="fill:#000000; fill-opacity:0.0; 
stroke:#000000; stroke-width:39.3701; stroke-opacity:1; 
stroke-linecap:round; stroke-linejoin:round;">
</g>
<g style="fill:#000000; fill-opacity:0.0; 
stroke:#000000; stroke-width:59.0551; stroke-opacity:1; 
stroke-linecap:round; stroke-linejoin:round;">
<path d="M14199 78580
L13906 78580
" />
<path d="M14052 78580
L14052 78069
L14004 78142
L13955 78190
L13906 78215
" />
</g>
<g style="fill:#000000; fill-opacity:0.0; 
stroke:#000000; stroke-width:39.3701; stroke-opacity:1; 
stroke-linecap:round; stroke-linejoin:round;">
</g>
<g style="fill:#000000; fill-opacity:0.0; 
stroke:#000000; stroke-width:59.0551; stroke-opacity:1; 
stroke-linecap:round; stroke-linejoin:round;">
<path d="M33591 78117
L33615 78093
L33664 78069
L33786 78069
L33835 78093
L33859 78117
L33884 78166
L33884 78215
L33859 78288
L33567 78580
L33884 78580
" />
</g>
<g style="fill:#000000; fill-opacity:0.0; 
stroke:#000000; stroke-width:39.3701; stroke-opacity:1; 
stroke-linecap:round; stroke-linejoin:round;">
</g>
<g style="fill:#000000; fill-opacity:0.0; 
stroke:#000000; stroke-width:59.0551; stroke-opacity:1; 
stroke-linecap:round; stroke-linejoin:round;">
<path d="M53252 78069
L53569 78069
L53398 78263
L53471 78263
L53520 78288
L53544 78312
L53569 78361
L53569 78483
L53544 78532
L53520 78556
L53471 78580
L53325 78580
L53276 78556
L53252 78532
" />
</g>
<g style="fill:#000000; fill-opacity:0.0; 
stroke:#000000; stroke-width:39.3701; stroke-opacity:1; 
stroke-linecap:round; stroke-linejoin:round;">
</g>
<g style="fill:#000000; fill-opacity:0.0; 
stroke:#000000; stroke-width:59.0551; stroke-opacity:1; 
stroke-linecap:round; stroke-linejoin:round;">
<path d="M73205 78239
L73205 78580
" />
<path d="M73083 78044
L72961 78410
L73278 78410
" />
</g>
<g style="fill:#000000; fill-opacity:0.0; 
stroke:#000000; stroke-width:39.3701; stroke-opacity:1; 
stroke-linecap:round; stroke-linejoin:round;">
</g>
<g style="fill:#000000; fill-opacity:0.0; 
stroke:#000000; stroke-width:59.0551; stroke-opacity:1; 
stroke-linecap:round; stroke-linejoin:round;">
<path d="M92914 78069
L92671 78069
L92646 78312
L92671 78288
L92719 78263
L92841 78263
L92890 78288
L92914 78312
L92939 78361
L92939 78483
L92914 78532
L92890 78556
L92841 78580
L92719 78580
L92671 78556
L92646 78532
" />
</g>
<g style="fill:#000000; fill-opacity:0.0; 
stroke:#000000; stroke-width:39.3701; stroke-opacity:1; 
stroke-linecap:round; stroke-linejoin:round;">
</g>
<g style="fill:#000000; fill-opacity:0.0; 
stroke:#000000; stroke-width:59.0551; stroke-opacity:1; 
stroke-linecap:round; stroke-linejoin:round;">
<path d="M112575 78069
L112477 78069
L112429 78093
L112404 78117
L112356 78190
L112331 78288
L112331 78483
L112356 78532
L112380 78556
L112429 78580
L112526 78580
L112575 78556
L112599 78532
L112624 78483
L112624 78361
L112599 78312
L112575 78288
L112526 78263
L112429 78263
L112380 78288
L112356 78312
L112331 78361
" />
</g>
<g style="fill:#000000; fill-opacity:0.0; 
stroke:#000000; stroke-width:39.3701; stroke-opacity:1; 
stroke-linecap:round; stroke-linejoin:round;">
</g>
<g style="fill:#000000; fill-opacity:0.0; 
stroke:#000000; stroke-width:59.0551; stroke-opacity:1; 
stroke-linecap:round; stroke-linejoin:round;">
<path d="M3937 23622
L4724 23622
" />
</g>
<g style="fill:#000000; fill-opacity:0.0; 
stroke:#000000; stroke-width:39.3701; stroke-opacity:1; 
stroke-linecap:round; stroke-linejoin:round;">
</g>
<g style="fill:#000000; fill-opacity:0.0; 
stroke:#000000; stroke-width:59.0551; stroke-opacity:1; 
stroke-linecap:round; stroke-linejoin:round;">
<path d="M3937 43307
L4724 43307
" />
</g>
<g style="fill:#000000; fill-opacity:0.0; 
stroke:#000000; stroke-width:39.3701; stroke-opacity:1; 
stroke-linecap:round; stroke-linejoin:round;">
</g>
<g style="fill:#000000; fill-opacity:0.0; 
stroke:#000000; stroke-width:59.0551; stroke-opacity:1; 
stroke-linecap:round; stroke-linejoin:round;">
<path d="M3937 62992
L4724 62992
" />
</g>
<g style="fill:#000000; fill-opacity:0.0; 
stroke:#000000; stroke-width:39.3701; stroke-opacity:1; 
stroke-linecap:round; stroke-linejoin:round;">
</g>
<g style="fill:#000000; fill-opacity:0.0; 
stroke:#000000; stroke-width:59.0551; stroke-opacity:1; 
stroke-linecap:round; stroke-linejoin:round;">
<path d="M4208 13864
L4452 13864
" />
<path d="M4160 14011
L4330 13499
L4501 14011
" />
</g>
<g style="fill:#000000; fill-opacity:0.0; 
stroke:#000000; stroke-width:39.3701; stroke-opacity:1; 
stroke-linecap:round; stroke-linejoin:round;">
</g>
<g style="fill:#000000; fill-opacity:0.0; 
stroke:#000000; stroke-width:59.0551; stroke-opacity:1; 
stroke-linecap:round; stroke-linejoin:round;">
<path d="M4367 33428
L4440 33452
L4464 33476
L4489 33525
L4489 33598
L4464 33647
L4440 33671
L4391 33696
L4196 33696
L4196 33184
L4367 33184
L4416 33208
L4440 33233
L4464 33281
L4464 33330
L4440 33379
L4416 33403
L4367 33428
L4196 33428
" />
</g>
<g style="fill:#000000; fill-opacity:0.0; 
stroke:#000000; stroke-width:39.3701; stroke-opacity:1; 
stroke-linecap:round; stroke-linejoin:round;">
</g>
<g style="fill:#000000; fill-opacity:0.0; 
stroke:#000000; stroke-width:59.0551; stroke-opacity:1; 
stroke-linecap:round; stroke-linejoin:round;">
<path d="M4489 53332
L4464 53356
L4391 53381
L4342 53381
L4269 53356
L4221 53308
L4196 53259
L4172 53161
L4172 53088
L4196 52991
L4221 52942
L4269 52893
L4342 52869
L4391 52869
L4464 52893
L4489 52918
" />
</g>
<g style="fill:#000000; fill-opacity:0.0; 
stroke:#000000; stroke-width:39.3701; stroke-opacity:1; 
stroke-linecap:round; stroke-linejoin:round;">
</g>
<g style="fill:#000000; fill-opacity:0.0; 
stroke:#000000; stroke-width:59.0551; stroke-opacity:1; 
stroke-linecap:round; stroke-linejoin:round;">
<path d="M4196 73066
L4196 72554
L4318 72554
L4391 72578
L4440 72627
L4464 72676
L4489 72773
L4489 72846
L4464 72944
L4440 72993
L4391 73041
L4318 73066
L4196 73066
" />
</g>
<g style="fill:#000000; fill-opacity:0.0; 
stroke:#000000; stroke-width:39.3701; stroke-opacity:1; 
stroke-linecap:round; stroke-linejoin:round;">
</g>
<g style="fill:#000000; fill-opacity:0.0; 
stroke:#000000; stroke-width:59.0551; stroke-opacity:1; 
stroke-linecap:round; stroke-linejoin:round;">
<path d="M112992 23622
L112205 23622
" />
</g>
<g style="fill:#000000; fill-opacity:0.0; 
stroke:#000000; stroke-width:39.3701; stroke-opacity:1; 
stroke-linecap:round; stroke-linejoin:round;">
</g>
<g style="fill:#000000; fill-opacity:0.0; 
stroke:#000000; stroke-width:59.0551; stroke-opacity:1; 
stroke-linecap:round; stroke-linejoin:round;">
<path d="M112992 43307
L112205 43307
" />
</g>
<g style="fill:#000000; fill-opacity:0.0; 
stroke:#000000; stroke-width:39.3701; stroke-opacity:1; 
stroke-linecap:round; stroke-linejoin:round;">
</g>
<g style="fill:#000000; fill-opacity:0.0; 
stroke:#000000; stroke-width:59.0551; stroke-opacity:1; 
stroke-linecap:round; stroke-linejoin:round;">
<path d="M112992 62992
L112205 62992
" />
</g>
<g style="fill:#000000; fill-opacity:0.0; 
stroke:#000000; stroke-width:39.3701; stroke-opacity:1; 
stroke-linecap:round; stroke-linejoin:round;">
</g>
<g style="fill:#000000; fill-opacity:0.0; 
stroke:#000000; stroke-width:59.0551; stroke-opacity:1; 
stroke-linecap:round; stroke-linejoin:round;">
<path d="M112477 13864
L112721 13864
" />
<path d="M112428 14011
L112599 13499
L112769 14011
" />
</g>
<g style="fill:#000000; fill-opacity:0.0; 
stroke:#000000; stroke-width:39.3701; stroke-opacity:1; 
stroke-linecap:round; stroke-linejoin:round;">
</g>
<g style="fill:#000000; fill-opacity:0.0; 
stroke:#000000; stroke-width:59.0551; stroke-opacity:1; 
stroke-linecap:round; stroke-linejoin:round;">
<path d="M112635 33428
L112708 33452
L112733 33476
L112757 33525
L112757 33598
L112733 33647
L112708 33671
L112660 33696
L112465 33696
L112465 33184
L112635 33184
L112684 33208
L112708 33233
L112733 33281
L112733 33330
L112708 33379
L112684 33403
L112635 33428
L112465 33428
" />
</g>
<g style="fill:#000000; fill-opacity:0.0; 
stroke:#000000; stroke-width:39.3701; stroke-opacity:1; 
stroke-linecap:round; stroke-linejoin:round;">
</g>
<g style="fill:#000000; fill-opacity:0.0; 
stroke:#000000; stroke-width:59.0551; stroke-opacity:1; 
stroke-linecap:round; stroke-linejoin:round;">
<path d="M112757 53332
L112733 53356
L112660 53381
L112611 53381
L112538 53356
L112489 53308
L112465 53259
L112440 53161
L112440 53088
L112465 52991
L112489 52942
L112538 52893
L112611 52869
L112660 52869
L112733 52893
L112757 52918
" />
</g>
<g style="fill:#000000; fill-opacity:0.0; 
stroke:#000000; stroke-width:39.3701; stroke-opacity:1; 
stroke-linecap:round; stroke-linejoin:round;">
</g>
<g style="fill:#000000; fill-opacity:0.0; 
stroke:#000000; stroke-width:59.0551; stroke-opacity:1; 
stroke-linecap:round; stroke-linejoin:round;">
<path d="M112465 73066
L112465 72554
L112587 72554
L112660 72578
L112708 72627
L112733 72676
L112757 72773
L112757 72846
L112733 72944
L112708 72993
L112660 73041
L112587 73066
L112465 73066
" />
</g>
<g style="fill:#000000; fill-opacity:0.0; 
stroke:#000000; stroke-width:39.3701; stroke-opacity:1; 
stroke-linecap:round; stroke-linejoin:round;">
</g>
<g style="fill:#000000; fill-opacity:0.0; 
stroke:#000000; stroke-width:59.0551; stroke-opacity:1; 
stroke-linecap:round; stroke-linejoin:round;">
<path d="M78911 76293
L78911 75703
L79051 75703
L79136 75731
L79192 75787
L79220 75843
L79248 75956
L79248 76040
L79220 76153
L79192 76209
L79136 76265
L79051 76293
L78911 76293
" />
<path d="M79754 76293
L79754 75984
L79726 75928
L79670 75899
L79557 75899
L79501 75928
" />
<path d="M79754 76265
L79698 76293
L79557 76293
L79501 76265
L79473 76209
L79473 76153
L79501 76096
L79557 76068
L79698 76068
L79754 76040
" />
<path d="M79951 75899
L80176 75899
" />
<path d="M80036 75703
L80036 76209
L80064 76265
L80120 76293
L80176 76293
" />
<path d="M80598 76265
L80542 76293
L80429 76293
L80373 76265
L80345 76209
L80345 75984
L80373 75928
L80429 75899
L80542 75899
L80598 75928
L80626 75984
L80626 76040
L80345 76096
" />
<path d="M80879 76237
L80907 76265
L80879 76293
L80851 76265
L80879 76237
L80879 76293
" />
<path d="M80879 75928
L80907 75956
L80879 75984
L80851 75956
L80879 75928
L80879 75984
" />
</g>
<g style="fill:#000000; fill-opacity:0.0; 
stroke:#000000; stroke-width:39.3701; stroke-opacity:1; 
stroke-linecap:round; stroke-linejoin:round;">
</g>
<g style="fill:#000000; fill-opacity:0.0; 
stroke:#000000; stroke-width:59.0551; stroke-opacity:1; 
stroke-linecap:round; stroke-linejoin:round;">
<path d="M69685 76577
L112205 76577
" />
</g>
<g style="fill:#000000; fill-opacity:0.0; 
stroke:#000000; stroke-width:39.3701; stroke-opacity:1; 
stroke-linecap:round; stroke-linejoin:round;">
</g>
<g style="fill:#000000; fill-opacity:0.0; 
stroke:#000000; stroke-width:59.0551; stroke-opacity:1; 
stroke-linecap:round; stroke-linejoin:round;">
<path d="M70249 77395
L70249 76805
" />
<path d="M70587 77395
L70334 77058
" />
<path d="M70587 76805
L70249 77142
" />
<path d="M70840 77395
L70840 77002
" />
<path d="M70840 76805
L70812 76833
L70840 76861
L70868 76833
L70840 76805
L70840 76861
" />
<path d="M71458 77339
L71430 77367
L71346 77395
L71290 77395
L71205 77367
L71149 77311
L71121 77255
L71093 77142
L71093 77058
L71121 76946
L71149 76889
L71205 76833
L71290 76805
L71346 76805
L71430 76833
L71458 76861
" />
<path d="M71965 77395
L71965 77086
L71937 77030
L71880 77002
L71768 77002
L71712 77030
" />
<path d="M71965 77367
L71908 77395
L71768 77395
L71712 77367
L71683 77311
L71683 77255
L71712 77199
L71768 77171
L71908 77171
L71965 77142
" />
<path d="M72499 77395
L72499 76805
" />
<path d="M72499 77367
L72443 77395
L72330 77395
L72274 77367
L72246 77339
L72218 77283
L72218 77114
L72246 77058
L72274 77030
L72330 77002
L72443 77002
L72499 77030
" />
<path d="M73230 77086
L73427 77086
" />
<path d="M73511 77395
L73230 77395
L73230 76805
L73511 76805
" />
<path d="M73764 77339
L73793 77367
L73764 77395
L73736 77367
L73764 77339
L73764 77395
" />
<path d="M74046 77395
L74046 76805
L74186 76805
L74271 76833
L74327 76889
L74355 76946
L74383 77058
L74383 77142
L74355 77255
L74327 77311
L74271 77367
L74186 77395
L74046 77395
" />
<path d="M74636 77339
L74664 77367
L74636 77395
L74608 77367
L74636 77339
L74636 77395
" />
<path d="M74889 77227
L75171 77227
" />
<path d="M74833 77395
L75030 76805
L75227 77395
" />
<path d="M75424 77339
L75452 77367
L75424 77395
L75395 77367
L75424 77339
L75424 77395
" />
<path d="M76605 77395
L76605 76805
" />
<path d="M76661 77171
L76830 77395
" />
<path d="M76830 77002
L76605 77227
" />
<path d="M77083 77395
L77083 77002
" />
<path d="M77083 76805
L77055 76833
L77083 76861
L77111 76833
L77083 76805
L77083 76861
" />
<path d="M77617 77367
L77561 77395
L77448 77395
L77392 77367
L77364 77339
L77336 77283
L77336 77114
L77364 77058
L77392 77030
L77448 77002
L77561 77002
L77617 77030
" />
<path d="M78123 77395
L78123 77086
L78095 77030
L78039 77002
L77926 77002
L77870 77030
" />
<path d="M78123 77367
L78067 77395
L77926 77395
L77870 77367
L77842 77311
L77842 77255
L77870 77199
L77926 77171
L78067 77171
L78123 77142
" />
<path d="M78658 77395
L78658 76805
" />
<path d="M78658 77367
L78601 77395
L78489 77395
L78433 77367
L78404 77339
L78376 77283
L78376 77114
L78404 77058
L78433 77030
L78489 77002
L78601 77002
L78658 77030
" />
<path d="M79670 76805
L79389 76805
L79361 77086
L79389 77058
L79445 77030
L79586 77030
L79642 77058
L79670 77086
L79698 77142
L79698 77283
L79670 77339
L79642 77367
L79586 77395
L79445 77395
L79389 77367
L79361 77339
" />
<path d="M79951 77339
L79979 77367
L79951 77395
L79923 77367
L79951 77339
L79951 77395
" />
<path d="M80345 76805
L80401 76805
L80457 76833
L80485 76861
L80514 76917
L80542 77030
L80542 77171
L80514 77283
L80485 77339
L80457 77367
L80401 77395
L80345 77395
L80289 77367
L80260 77339
L80232 77283
L80204 77171
L80204 77030
L80232 76917
L80260 76861
L80289 76833
L80345 76805
" />
<path d="M80795 77339
L80823 77367
L80795 77395
L80767 77367
L80795 77339
L80795 77395
" />
<path d="M81048 76861
L81076 76833
L81132 76805
L81273 76805
L81329 76833
L81357 76861
L81385 76917
L81385 76974
L81357 77058
L81020 77395
L81385 77395
" />
<path d="M81638 77171
L82088 77171
" />
<path d="M81863 77395
L81863 76946
" />
<path d="M82623 77395
L82623 76805
" />
<path d="M82623 77367
L82566 77395
L82454 77395
L82398 77367
L82370 77339
L82341 77283
L82341 77114
L82370 77058
L82398 77030
L82454 77002
L82566 77002
L82623 77030
" />
<path d="M82820 77002
L83045 77002
" />
<path d="M82904 77395
L82904 76889
L82932 76833
L82988 76805
L83045 76805
" />
<path d="M83213 77367
L83269 77395
L83382 77395
L83438 77367
L83466 77311
L83466 77283
L83438 77227
L83382 77199
L83298 77199
L83241 77171
L83213 77114
L83213 77086
L83241 77030
L83298 77002
L83382 77002
L83438 77030
" />
<path d="M83973 77002
L83973 77480
L83944 77536
L83916 77564
L83860 77592
L83776 77592
L83719 77564
" />
<path d="M83973 77367
L83916 77395
L83804 77395
L83748 77367
L83719 77339
L83691 77283
L83691 77114
L83719 77058
L83748 77030
L83804 77002
L83916 77002
L83973 77030
" />
<path d="M84563 77395
L84226 77395
" />
<path d="M84394 77395
L84394 76805
L84338 76889
L84282 76946
L84226 76974
" />
<path d="M84816 77171
L85266 77171
" />
<path d="M85857 77395
L85519 77395
" />
<path d="M85688 77395
L85688 76805
L85632 76889
L85575 76946
L85519 76974
" />
<path d="M85969 76644
L86503 76644
" />
<path d="M86110 77395
L86110 76805
" />
<path d="M86110 77030
L86166 77002
L86278 77002
L86335 77030
L86363 77058
L86391 77114
L86391 77283
L86363 77339
L86335 77367
L86278 77395
L86166 77395
L86110 77367
" />
<path d="M86503 76644
L87038 76644
" />
<path d="M86644 77002
L86644 77592
" />
<path d="M86644 77030
L86700 77002
L86813 77002
L86869 77030
L86897 77058
L86925 77114
L86925 77283
L86897 77339
L86869 77367
L86813 77395
L86700 77395
L86644 77367
" />
<path d="M87038 76644
L87572 76644
" />
<path d="M87263 77395
L87206 77367
L87178 77339
L87150 77283
L87150 77114
L87178 77058
L87206 77030
L87263 77002
L87347 77002
L87403 77030
L87431 77058
L87460 77114
L87460 77283
L87431 77339
L87403 77367
L87347 77395
L87263 77395
" />
<path d="M87572 76644
L88135 76644
" />
<path d="M87741 77395
L87853 77395
L87910 77367
L87938 77339
L87994 77255
L88022 77142
L88022 76917
L87994 76861
L87966 76833
L87910 76805
L87797 76805
L87741 76833
L87713 76861
L87685 76917
L87685 77058
L87713 77114
L87741 77142
L87797 77171
L87910 77171
L87966 77142
L87994 77114
L88022 77058
" />
<path d="M88135 76644
L88866 76644
" />
<path d="M88275 77171
L88725 77171
" />
<path d="M88500 77395
L88500 76946
" />
<path d="M88866 76644
L89428 76644
" />
<path d="M89316 77395
L88978 77395
" />
<path d="M89147 77395
L89147 76805
L89091 76889
L89034 76946
L88978 76974
" />
</g>
<g style="fill:#000000; fill-opacity:0.0; 
stroke:#000000; stroke-width:39.3701; stroke-opacity:1; 
stroke-linecap:round; stroke-linejoin:round;">
</g>
<g style="fill:#000000; fill-opacity:0.0; 
stroke:#000000; stroke-width:59.0551; stroke-opacity:1; 
stroke-linecap:round; stroke-linejoin:round;">
<path d="M69685 75396
L112205 75396
" />
</g>
<g style="fill:#000000; fill-opacity:0.0; 
stroke:#000000; stroke-width:39.3701; stroke-opacity:1; 
stroke-linecap:round; stroke-linejoin:round;">
</g>
<g style="fill:#000000; fill-opacity:0.0; 
stroke:#000000; stroke-width:118.11; stroke-opacity:1; 
stroke-linecap:round; stroke-linejoin:round;">
<path d="M104099 76293
L103902 76012
" />
<path d="M103761 76293
L103761 75703
L103986 75703
L104042 75731
L104070 75759
L104099 75815
L104099 75899
L104070 75956
L104042 75984
L103986 76012
L103761 76012
" />
<path d="M104577 76265
L104520 76293
L104408 76293
L104352 76265
L104323 76209
L104323 75984
L104352 75928
L104408 75899
L104520 75899
L104577 75928
L104605 75984
L104605 76040
L104323 76096
" />
<path d="M104802 75899
L104942 76293
L105083 75899
" />
<path d="M105308 76237
L105336 76265
L105308 76293
L105280 76265
L105308 76237
L105308 76293
" />
<path d="M105308 75928
L105336 75956
L105308 75984
L105280 75956
L105308 75928
L105308 75984
" />
</g>
<g style="fill:#000000; fill-opacity:0.0; 
stroke:#000000; stroke-width:39.3701; stroke-opacity:1; 
stroke-linecap:round; stroke-linejoin:round;">
</g>
<g style="fill:#000000; fill-opacity:0.0; 
stroke:#000000; stroke-width:59.0551; stroke-opacity:1; 
stroke-linecap:round; stroke-linejoin:round;">
<path d="M70221 76265
L70305 76293
L70446 76293
L70502 76265
L70530 76237
L70559 76181
L70559 76124
L70530 76068
L70502 76040
L70446 76012
L70334 75984
L70277 75956
L70249 75928
L70221 75871
L70221 75815
L70249 75759
L70277 75731
L70334 75703
L70474 75703
L70559 75731
" />
<path d="M70812 76293
L70812 75899
" />
<path d="M70812 75703
L70784 75731
L70812 75759
L70840 75731
L70812 75703
L70812 75759
" />
<path d="M71037 75899
L71346 75899
L71037 76293
L71346 76293
" />
<path d="M71796 76265
L71740 76293
L71627 76293
L71571 76265
L71543 76209
L71543 75984
L71571 75928
L71627 75899
L71740 75899
L71796 75928
L71824 75984
L71824 76040
L71543 76096
" />
<path d="M72077 76237
L72105 76265
L72077 76293
L72049 76265
L72077 76237
L72077 76293
" />
<path d="M72077 75928
L72105 75956
L72077 75984
L72049 75956
L72077 75928
L72077 75984
" />
<path d="M72780 76124
L73061 76124
" />
<path d="M72724 76293
L72921 75703
L73118 76293
" />
<path d="M73568 75899
L73568 76293
" />
<path d="M73427 75674
L73286 76096
L73652 76096
" />
</g>
<g style="fill:#000000; fill-opacity:0.0; 
stroke:#000000; stroke-width:39.3701; stroke-opacity:1; 
stroke-linecap:round; stroke-linejoin:round;">
</g>
<g style="fill:#000000; fill-opacity:0.0; 
stroke:#000000; stroke-width:59.0551; stroke-opacity:1; 
stroke-linecap:round; stroke-linejoin:round;">
<path d="M103714 77395
L103714 76805
" />
<path d="M104248 77395
L104248 76805
" />
<path d="M104248 77367
L104192 77395
L104079 77395
L104023 77367
L103995 77339
L103967 77283
L103967 77114
L103995 77058
L104023 77030
L104079 77002
L104192 77002
L104248 77030
" />
<path d="M104529 77339
L104557 77367
L104529 77395
L104501 77367
L104529 77339
L104529 77395
" />
<path d="M104529 77030
L104557 77058
L104529 77086
L104501 77058
L104529 77030
L104529 77086
" />
<path d="M105570 77395
L105232 77395
" />
<path d="M105401 77395
L105401 76805
L105345 76889
L105289 76946
L105232 76974
" />
<path d="M106245 76777
L105739 77536
" />
<path d="M106751 77395
L106413 77395
" />
<path d="M106582 77395
L106582 76805
L106526 76889
L106470 76946
L106413 76974
" />
</g>
<g style="fill:#000000; fill-opacity:0.0; 
stroke:#000000; stroke-width:39.3701; stroke-opacity:1; 
stroke-linecap:round; stroke-linejoin:round;">
</g>
<g style="fill:#000000; fill-opacity:0.0; 
stroke:#000000; stroke-width:59.0551; stroke-opacity:1; 
stroke-linecap:round; stroke-linejoin:round;">
<path d="M69685 73821
L112205 73821
" />
</g>
<g style="fill:#000000; fill-opacity:0.0; 
stroke:#000000; stroke-width:39.3701; stroke-opacity:1; 
stroke-linecap:round; stroke-linejoin:round;">
</g>
<g style="fill:#000000; fill-opacity:0.0; 
stroke:#000000; stroke-width:157.48; stroke-opacity:1; 
stroke-linecap:round; stroke-linejoin:round;">
<path d="M70360 74099
L70810 74099
" />
<path d="M70486 74886
L70585 74099
" />
<path d="M70974 74886
L71039 74361
" />
<path d="M71072 74099
L71030 74136
L71063 74174
L71105 74136
L71072 74099
L71063 74174
" />
<path d="M71302 74361
L71602 74361
" />
<path d="M71447 74099
L71363 74774
L71391 74849
L71461 74886
L71536 74886
" />
<path d="M71911 74886
L71841 74849
L71813 74774
L71897 74099
" />
<path d="M72516 74849
L72436 74886
L72286 74886
L72216 74849
L72187 74774
L72225 74474
L72272 74399
L72352 74361
L72501 74361
L72572 74399
L72600 74474
L72591 74549
L72206 74624
" />
<path d="M72895 74811
L72928 74849
L72886 74886
L72853 74849
L72895 74811
L72886 74886
" />
<path d="M72947 74399
L72980 74436
L72937 74474
L72905 74436
L72947 74399
L72937 74474
" />
</g>
<g style="fill:#000000; fill-opacity:0.0; 
stroke:#000000; stroke-width:39.3701; stroke-opacity:1; 
stroke-linecap:round; stroke-linejoin:round;">
</g>
<g style="fill:#000000; fill-opacity:0.0; 
stroke:#000000; stroke-width:59.0551; stroke-opacity:1; 
stroke-linecap:round; stroke-linejoin:round;">
<path d="M70446 73070
L70249 73070
" />
<path d="M70249 73380
L70249 72789
L70530 72789
" />
<path d="M70755 73380
L70755 72986
" />
<path d="M70755 72789
L70727 72817
L70755 72845
L70784 72817
L70755 72789
L70755 72845
" />
<path d="M71121 73380
L71065 73352
L71037 73295
L71037 72789
" />
<path d="M71571 73352
L71515 73380
L71402 73380
L71346 73352
L71318 73295
L71318 73070
L71346 73014
L71402 72986
L71515 72986
L71571 73014
L71599 73070
L71599 73127
L71318 73183
" />
<path d="M71852 73323
L71880 73352
L71852 73380
L71824 73352
L71852 73323
L71852 73380
" />
<path d="M71852 73014
L71880 73042
L71852 73070
L71824 73042
L71852 73014
L71852 73070
" />
<path d="M72668 73042
L72611 73014
L72583 72986
L72555 72930
L72555 72902
L72583 72845
L72611 72817
L72668 72789
L72780 72789
L72836 72817
L72865 72845
L72893 72902
L72893 72930
L72865 72986
L72836 73014
L72780 73042
L72668 73042
L72611 73070
L72583 73099
L72555 73155
L72555 73267
L72583 73323
L72611 73352
L72668 73380
L72780 73380
L72836 73352
L72865 73323
L72893 73267
L72893 73155
L72865 73099
L72836 73070
L72780 73042
" />
<path d="M73146 73380
L73146 72789
" />
<path d="M73202 73155
L73371 73380
" />
<path d="M73371 72986
L73146 73211
" />
<path d="M73624 72986
L73624 73380
" />
<path d="M73624 73042
L73652 73014
L73708 72986
L73793 72986
L73849 73014
L73877 73070
L73877 73380
" />
<path d="M74242 73380
L74186 73352
L74158 73323
L74130 73267
L74130 73099
L74158 73042
L74186 73014
L74242 72986
L74327 72986
L74383 73014
L74411 73042
L74439 73099
L74439 73267
L74411 73323
L74383 73352
L74327 73380
L74242 73380
" />
<path d="M74692 73380
L74692 72789
" />
<path d="M74692 73014
L74749 72986
L74861 72986
L74917 73014
L74946 73042
L74974 73099
L74974 73267
L74946 73323
L74917 73352
L74861 73380
L74749 73380
L74692 73352
" />
<path d="M75199 73352
L75255 73380
L75367 73380
L75424 73352
L75452 73295
L75452 73267
L75424 73211
L75367 73183
L75283 73183
L75227 73155
L75199 73099
L75199 73070
L75227 73014
L75283 72986
L75367 72986
L75424 73014
" />
<path d="M75705 73323
L75733 73352
L75705 73380
L75677 73352
L75705 73323
L75705 73380
" />
<path d="M75986 73380
L75986 72789
" />
<path d="M76042 73155
L76211 73380
" />
<path d="M76211 72986
L75986 73211
" />
<path d="M76464 73380
L76464 72986
" />
<path d="M76464 72789
L76436 72817
L76464 72845
L76492 72817
L76464 72789
L76464 72845
" />
<path d="M76998 73352
L76942 73380
L76830 73380
L76773 73352
L76745 73323
L76717 73267
L76717 73099
L76745 73042
L76773 73014
L76830 72986
L76942 72986
L76998 73014
" />
<path d="M77505 73380
L77505 73070
L77476 73014
L77420 72986
L77308 72986
L77251 73014
" />
<path d="M77505 73352
L77448 73380
L77308 73380
L77251 73352
L77223 73295
L77223 73239
L77251 73183
L77308 73155
L77448 73155
L77505 73127
" />
<path d="M78039 73380
L78039 72789
" />
<path d="M78039 73352
L77983 73380
L77870 73380
L77814 73352
L77786 73323
L77758 73267
L77758 73099
L77786 73042
L77814 73014
L77870 72986
L77983 72986
L78039 73014
" />
<path d="M78180 73436
L78629 73436
" />
<path d="M78770 72986
L78770 73577
" />
<path d="M78770 73014
L78826 72986
L78939 72986
L78995 73014
L79023 73042
L79051 73099
L79051 73267
L79023 73323
L78995 73352
L78939 73380
L78826 73380
L78770 73352
" />
<path d="M79557 73352
L79501 73380
L79389 73380
L79332 73352
L79304 73323
L79276 73267
L79276 73099
L79304 73042
L79332 73014
L79389 72986
L79501 72986
L79557 73014
" />
<path d="M79811 73380
L79811 72789
" />
<path d="M79811 73014
L79867 72986
L79979 72986
L80036 73014
L80064 73042
L80092 73099
L80092 73267
L80064 73323
L80036 73352
L79979 73380
L79867 73380
L79811 73352
" />
</g>
<g style="fill:#000000; fill-opacity:0.0; 
stroke:#000000; stroke-width:39.3701; stroke-opacity:1; 
stroke-linecap:round; stroke-linejoin:round;">
</g>
<g style="fill:#000000; fill-opacity:0.0; 
stroke:#000000; stroke-width:59.0551; stroke-opacity:1; 
stroke-linecap:round; stroke-linejoin:round;">
<path d="M69685 71459
L112205 71459
" />
</g>
<g style="fill:#000000; fill-opacity:0.0; 
stroke:#000000; stroke-width:39.3701; stroke-opacity:1; 
stroke-linecap:round; stroke-linejoin:round;">
</g>
<g style="fill:#000000; fill-opacity:0.0; 
stroke:#000000; stroke-width:59.0551; stroke-opacity:1; 
stroke-linecap:round; stroke-linejoin:round;">
<path d="M70221 72289
L70305 72317
L70446 72317
L70502 72289
L70530 72260
L70559 72204
L70559 72148
L70530 72092
L70502 72064
L70446 72036
L70334 72007
L70277 71979
L70249 71951
L70221 71895
L70221 71839
L70249 71782
L70277 71754
L70334 71726
L70474 71726
L70559 71754
" />
<path d="M70812 72317
L70812 71726
" />
<path d="M71065 72317
L71065 72007
L71037 71951
L70980 71923
L70896 71923
L70840 71951
L70812 71979
" />
<path d="M71571 72289
L71515 72317
L71402 72317
L71346 72289
L71318 72232
L71318 72007
L71346 71951
L71402 71923
L71515 71923
L71571 71951
L71599 72007
L71599 72064
L71318 72120
" />
<path d="M72077 72289
L72021 72317
L71908 72317
L71852 72289
L71824 72232
L71824 72007
L71852 71951
L71908 71923
L72021 71923
L72077 71951
L72105 72007
L72105 72064
L71824 72120
" />
<path d="M72274 71923
L72499 71923
" />
<path d="M72358 71726
L72358 72232
L72386 72289
L72443 72317
L72499 72317
" />
<path d="M72696 72260
L72724 72289
L72696 72317
L72668 72289
L72696 72260
L72696 72317
" />
<path d="M72696 71951
L72724 71979
L72696 72007
L72668 71979
L72696 71951
L72696 72007
" />
</g>
<g style="fill:#000000; fill-opacity:0.0; 
stroke:#000000; stroke-width:39.3701; stroke-opacity:1; 
stroke-linecap:round; stroke-linejoin:round;">
</g>
<g style="fill:#000000; fill-opacity:0.0; 
stroke:#000000; stroke-width:59.0551; stroke-opacity:1; 
stroke-linecap:round; stroke-linejoin:round;">
<path d="M77559 75396
L77559 76577
" />
</g>
<g style="fill:#000000; fill-opacity:0.0; 
stroke:#000000; stroke-width:39.3701; stroke-opacity:1; 
stroke-linecap:round; stroke-linejoin:round;">
</g>
<g style="fill:#000000; fill-opacity:0.0; 
stroke:#000000; stroke-width:59.0551; stroke-opacity:1; 
stroke-linecap:round; stroke-linejoin:round;">
<path d="M102756 75396
L102756 77955
" />
</g>
<g style="fill:#000000; fill-opacity:0.0; 
stroke:#000000; stroke-width:39.3701; stroke-opacity:1; 
stroke-linecap:round; stroke-linejoin:round;">
<circle cx="50700" cy="30813.7" r="787.402" /> 
<path d="M51041 30143
L51041 30300
" />
<path d="M51120 30222
L50962 30222
" />
<path d="M50199 35394
L50357 35394
" />
<path d="M50278 35473
L50278 35315
" />
<circle cx="50620.1" cy="34803.1" r="787.402" /> 
<path d="M39212 31570
L40000 31570
" />
<path d="M40000 31570
L40000 29996
" />
<path d="M40000 29996
L39212 29996
" />
<path d="M39212 29996
L39212 31570
" />
<path d="M39606 32283
L39606 31570
" />
<path d="M39606 29283
L39606 29996
" />
<path d="M39212 31334
L40000 31334
" />
<path d="M39212 31295
L40000 31295
" />
<path d="M39212 31374
L40000 31374
" />
<path d="M54106.5 34265.6 A748.031 748.031 0.0 1 0 54106.3 35183.5 " />
<circle cx="53515.7" cy="34724.4" r="590.551" /> 
<path d="M54106 35183
L54106 34265
" />
<path d="M37640 36350
L37640 37100
" />
<path d="M37640 37100
L33640 37100
" />
<path d="M33640 37100
L33640 36100
" />
<path d="M33640 36100
L37390 36100
" />
<path d="M37390 36100
L37640 36350
" />
<path d="M19259 29687
L19259 30672
" />
<path d="M19259 30672
L21740 30672
" />
<path d="M21740 30672
L21740 29687
" />
<path d="M21740 29687
L19259 29687
" />
<path d="M19000 30180
L19259 30180
" />
<path d="M22000 30180
L21740 30180
" />
<path d="M26380 30652
L26380 29667
" />
<path d="M26380 29667
L23899 29667
" />
<path d="M23899 29667
L23899 30652
" />
<path d="M23899 30652
L26380 30652
" />
<path d="M26640 30160
L26380 30160
" />
<path d="M23640 30160
L23899 30160
" />
<path d="M33820 32260
L33820 32000
" />
<path d="M33820 29260
L33820 29519
" />
<path d="M34312 32000
L34312 29519
" />
<path d="M33327 32000
L34312 32000
" />
<path d="M33327 29519
L33327 32000
" />
<path d="M34312 29519
L33327 29519
" />
<path d="M30867 32040
L31852 32040
" />
<path d="M31852 32040
L31852 29559
" />
<path d="M31852 29559
L30867 29559
" />
<path d="M30867 29559
L30867 32040
" />
<path d="M31360 32300
L31360 32040
" />
<path d="M31360 29300
L31360 29559
" />
<path d="M42372 29708
L41387 29708
" />
<path d="M41387 29708
L41387 32188
" />
<path d="M41387 32188
L42372 32188
" />
<path d="M42372 32188
L42372 29708
" />
<path d="M41879 29448
L41879 29708
" />
<path d="M41879 32448
L41879 32188
" />
<path d="M47920 29160
L47920 29419
" />
<path d="M47920 32160
L47920 31900
" />
<path d="M47427 29419
L47427 31900
" />
<path d="M48412 29419
L47427 29419
" />
<path d="M48412 31900
L48412 29419
" />
<path d="M47427 31900
L48412 31900
" />
<path d="M44094 32448
L44094 32188
" />
<path d="M44094 29448
L44094 29708
" />
<path d="M44586 32188
L44586 29708
" />
<path d="M43602 32188
L44586 32188
" />
<path d="M43602 29708
L43602 32188
" />
<path d="M44586 29708
L43602 29708
" />
<path d="M24645 16535
L24645 21259
" />
<path d="M28503 16535
L24645 16535
" />
<path d="M28503 21259
L28503 16535
" />
<path d="M24645 21259
L28503 21259
" />
<circle cx="26574.8" cy="18700.8" r="1181.1" /> 
<circle cx="26574.8" cy="11614.2" r="1181.1" /> 
<path d="M24645 14173
L28503 14173
" />
<path d="M28503 14173
L28503 9448
" />
<path d="M28503 9448
L24645 9448
" />
<path d="M24645 9448
L24645 14173
" />
<circle cx="34448.8" cy="11614.2" r="1181.1" /> 
<path d="M32519 14173
L36377 14173
" />
<path d="M36377 14173
L36377 9448
" />
<path d="M36377 9448
L32519 9448
" />
<path d="M32519 9448
L32519 14173
" />
<path d="M32519 16535
L32519 21259
" />
<path d="M36377 16535
L32519 16535
" />
<path d="M36377 21259
L36377 16535
" />
<path d="M32519 21259
L36377 21259
" />
<circle cx="34448.8" cy="18700.8" r="1181.1" /> 
<circle cx="42322.8" cy="11614.2" r="1181.1" /> 
<path d="M40393 14173
L44251 14173
" />
<path d="M44251 14173
L44251 9448
" />
<path d="M44251 9448
L40393 9448
" />
<path d="M40393 9448
L40393 14173
" />
<path d="M40393 16535
L40393 21259
" />
<path d="M44251 16535
L40393 16535
" />
<path d="M44251 21259
L44251 16535
" />
<path d="M40393 21259
L44251 21259
" />
<circle cx="42322.8" cy="18700.8" r="1181.1" /> 
<circle cx="50196.9" cy="11614.2" r="1181.1" /> 
<path d="M48267 14173
L52125 14173
" />
<path d="M52125 14173
L52125 9448
" />
<path d="M52125 9448
L48267 9448
" />
<path d="M48267 9448
L48267 14173
" />
<path d="M48267 16535
L48267 21259
" />
<path d="M52125 16535
L48267 16535
" />
<path d="M52125 21259
L52125 16535
" />
<path d="M48267 21259
L52125 21259
" />
<circle cx="50196.9" cy="18700.8" r="1181.1" /> 
<path d="M34933 31639
L34933 29533
" />
<path d="M34933 29533
L37933 29533
" />
<path d="M37933 29533
L37933 32033
" />
<path d="M37933 32033
L35326 32033
" />
<path d="M35326 32033
L34933 31639
" />
<path d="M50236 26212
L50236 26472
" />
<path d="M50236 29212
L50236 28952
" />
<path d="M49744 26472
L49744 28952
" />
<path d="M50728 26472
L49744 26472
" />
<path d="M50728 28952
L50728 26472
" />
<path d="M49744 28952
L50728 28952
" />
<path d="M52574 33248
L52574 32263
" />
<path d="M52574 32263
L50094 32263
" />
<path d="M50094 32263
L50094 33248
" />
<path d="M50094 33248
L52574 33248
" />
<path d="M52834 32755
L52574 32755
" />
<path d="M49834 32755
L50094 32755
" />
</g>
<g style="fill:#000000; fill-opacity:0.0; 
stroke:#000000; stroke-width:59.0551; stroke-opacity:1; 
stroke-linecap:round; stroke-linejoin:round;">
<path d="M49598 31066
L49598 31291
" />
<path d="M49598 31179
L49204 31179
L49261 31216
L49298 31254
L49317 31291
" />
<path d="M49204 30823
L49204 30785
L49223 30748
L49242 30729
L49279 30710
L49354 30691
L49448 30691
L49523 30710
L49561 30729
L49579 30748
L49598 30785
L49598 30823
L49579 30860
L49561 30879
L49523 30898
L49448 30916
L49354 30916
L49279 30898
L49242 30879
L49223 30860
L49204 30823
" />
<path d="M49336 30523
L49598 30523
" />
<path d="M49373 30523
L49354 30504
L49336 30466
L49336 30410
L49354 30373
L49392 30354
L49598 30354
" />
</g>
<g style="fill:#000000; fill-opacity:0.0; 
stroke:#000000; stroke-width:47.2441; stroke-opacity:1; 
stroke-linecap:round; stroke-linejoin:round;">
<path d="M50812 30866
L50827 30881
L50842 30926
L50842 30956
L50827 31001
L50797 31031
L50767 31046
L50707 31061
L50662 31061
L50602 31046
L50572 31031
L50542 31001
L50527 30956
L50527 30926
L50542 30881
L50557 30866
" />
<path d="M50842 30566
L50842 30746
" />
<path d="M50842 30656
L50527 30656
L50572 30686
L50602 30716
L50617 30746
" />
</g>
<g style="fill:#000000; fill-opacity:0.0; 
stroke:#000000; stroke-width:59.0551; stroke-opacity:1; 
stroke-linecap:round; stroke-linejoin:round;">
<path d="M52077 35056
L52077 35281
" />
<path d="M52077 35168
L51684 35168
L51740 35206
L51777 35243
L51796 35281
" />
<path d="M51684 34812
L51684 34775
L51702 34737
L51721 34718
L51758 34700
L51833 34681
L51927 34681
L52002 34700
L52040 34718
L52058 34737
L52077 34775
L52077 34812
L52058 34850
L52040 34868
L52002 34887
L51927 34906
L51833 34906
L51758 34887
L51721 34868
L51702 34850
L51684 34812
" />
<path d="M51815 34512
L52077 34512
" />
<path d="M51852 34512
L51833 34493
L51815 34456
L51815 34400
L51833 34362
L51871 34343
L52077 34343
" />
</g>
<g style="fill:#000000; fill-opacity:0.0; 
stroke:#000000; stroke-width:47.2441; stroke-opacity:1; 
stroke-linecap:round; stroke-linejoin:round;">
<path d="M50732 34855
L50747 34870
L50762 34915
L50762 34945
L50747 34990
L50717 35020
L50687 35035
L50627 35050
L50582 35050
L50522 35035
L50492 35020
L50462 34990
L50447 34945
L50447 34915
L50462 34870
L50477 34855
" />
<path d="M50477 34735
L50462 34720
L50447 34690
L50447 34615
L50462 34585
L50477 34570
L50507 34555
L50537 34555
L50582 34570
L50762 34750
L50762 34555
" />
</g>
<g style="fill:#000000; fill-opacity:0.0; 
stroke:#000000; stroke-width:59.0551; stroke-opacity:1; 
stroke-linecap:round; stroke-linejoin:round;">
<path d="M40619 31439
L40619 31664
" />
<path d="M40619 31552
L40225 31552
L40281 31589
L40319 31627
L40337 31664
" />
<path d="M40619 31270
L40225 31270
L40619 31045
L40225 31045
" />
<path d="M40619 30839
L40619 30764
L40600 30727
L40581 30708
L40525 30670
L40450 30652
L40300 30652
L40262 30670
L40244 30689
L40225 30727
L40225 30802
L40244 30839
L40262 30858
L40300 30877
L40394 30877
L40431 30858
L40450 30839
L40469 30802
L40469 30727
L40450 30689
L40431 30670
L40394 30652
" />
<path d="M40619 30277
L40619 30502
" />
<path d="M40619 30389
L40225 30389
L40281 30427
L40319 30464
L40337 30502
" />
<path d="M40356 29939
L40619 29939
" />
<path d="M40206 30033
L40487 30127
L40487 29883
" />
</g>
<g style="fill:#000000; fill-opacity:0.0; 
stroke:#000000; stroke-width:47.2441; stroke-opacity:1; 
stroke-linecap:round; stroke-linejoin:round;">
<path d="M39748 30897
L39433 30897
L39433 30822
L39448 30777
L39478 30747
L39508 30732
L39568 30717
L39613 30717
L39673 30732
L39703 30747
L39733 30777
L39748 30822
L39748 30897
" />
<path d="M39748 30417
L39748 30597
" />
<path d="M39748 30507
L39433 30507
L39478 30537
L39508 30567
L39523 30597
" />
</g>
<g style="fill:#000000; fill-opacity:0.0; 
stroke:#000000; stroke-width:59.0551; stroke-opacity:1; 
stroke-linecap:round; stroke-linejoin:round;">
<path d="M39075 32386
L38682 32386
" />
<path d="M39075 32161
L38850 32330
" />
<path d="M38682 32161
L38907 32386
" />
<path d="M53262 33737
L53075 33737
L53075 33343
" />
<path d="M53393 33530
L53525 33530
" />
<path d="M53581 33737
L53393 33737
L53393 33343
L53581 33343
" />
<path d="M53750 33737
L53750 33343
L53843 33343
L53900 33362
L53937 33399
L53956 33437
L53975 33512
L53975 33568
L53956 33643
L53937 33680
L53900 33718
L53843 33737
L53750 33737
" />
<path d="M33886 37860
L34073 37860
" />
<path d="M33848 37973
L33980 37579
L34111 37973
" />
<path d="M34261 37973
L34336 37973
L34373 37954
L34392 37935
L34430 37879
L34448 37804
L34448 37654
L34430 37617
L34411 37598
L34373 37579
L34298 37579
L34261 37598
L34242 37617
L34223 37654
L34223 37748
L34242 37785
L34261 37804
L34298 37823
L34373 37823
L34411 37804
L34430 37785
L34448 37748
" />
<path d="M34898 37860
L35086 37860
" />
<path d="M34861 37973
L34992 37579
L35123 37973
" />
<path d="M35461 37973
L35236 37973
" />
<path d="M35348 37973
L35348 37579
L35311 37635
L35273 37673
L35236 37692
" />
<path d="M35704 37579
L35742 37579
L35779 37598
L35798 37617
L35817 37654
L35836 37729
L35836 37823
L35817 37898
L35798 37935
L35779 37954
L35742 37973
L35704 37973
L35667 37954
L35648 37935
L35629 37898
L35611 37823
L35611 37729
L35629 37654
L35648 37617
L35667 37598
L35704 37579
" />
<path d="M36511 37598
L36473 37579
L36417 37579
L36361 37598
L36323 37635
L36304 37673
L36286 37748
L36286 37804
L36304 37879
L36323 37917
L36361 37954
L36417 37973
L36454 37973
L36511 37954
L36529 37935
L36529 37804
L36454 37804
" />
<path d="M36961 37579
L37204 37579
L37073 37729
L37129 37729
L37167 37748
L37185 37767
L37204 37804
L37204 37898
L37185 37935
L37167 37954
L37129 37973
L37017 37973
L36979 37954
L36961 37935
" />
<path d="M37373 37935
L37392 37954
L37373 37973
L37354 37954
L37373 37935
L37373 37973
" />
<path d="M37523 37579
L37767 37579
L37635 37729
L37692 37729
L37729 37748
L37748 37767
L37767 37804
L37767 37898
L37748 37935
L37729 37954
L37692 37973
L37579 37973
L37542 37954
L37523 37935
" />
<path d="M35508 36384
L35508 36665
L35490 36721
L35452 36759
L35396 36778
L35358 36778
" />
<path d="M35902 36778
L35677 36778
" />
<path d="M35789 36778
L35789 36384
L35752 36440
L35714 36478
L35677 36496
" />
<path d="M20425 31291
L20200 31291
" />
<path d="M20312 31291
L20312 30897
L20275 30953
L20237 30991
L20200 31009
" />
<path d="M20668 30897
L20706 30897
L20743 30916
L20762 30934
L20781 30972
L20799 31047
L20799 31141
L20781 31216
L20762 31253
L20743 31272
L20706 31291
L20668 31291
L20631 31272
L20612 31253
L20593 31216
L20574 31141
L20574 31047
L20593 30972
L20612 30934
L20631 30916
L20668 30897
" />
<path d="M20434 30358
L20303 30170
" />
<path d="M20209 30358
L20209 29964
L20359 29964
L20396 29983
L20415 30001
L20434 30039
L20434 30095
L20415 30133
L20396 30151
L20359 30170
L20209 30170
" />
<path d="M20809 30358
L20584 30358
" />
<path d="M20696 30358
L20696 29964
L20659 30020
L20621 30058
L20584 30076
" />
<path d="M24821 29011
L25065 29011
L24933 29161
L24990 29161
L25027 29180
L25046 29198
L25065 29236
L25065 29330
L25046 29367
L25027 29386
L24990 29405
L24877 29405
L24840 29386
L24821 29367
" />
<path d="M25196 29011
L25439 29011
L25308 29161
L25364 29161
L25402 29180
L25421 29198
L25439 29236
L25439 29330
L25421 29367
L25402 29386
L25364 29405
L25252 29405
L25214 29386
L25196 29367
" />
<path d="M25074 30338
L24943 30150
" />
<path d="M24849 30338
L24849 29944
L24999 29944
L25036 29963
L25055 29981
L25074 30019
L25074 30075
L25055 30113
L25036 30131
L24999 30150
L24849 30150
" />
<path d="M25224 29981
L25243 29963
L25280 29944
L25374 29944
L25411 29963
L25430 29981
L25449 30019
L25449 30056
L25430 30113
L25205 30338
L25449 30338
" />
<path d="M32708 31247
L32690 31228
L32671 31191
L32671 31097
L32690 31059
L32708 31041
L32746 31022
L32783 31022
L32840 31041
L33065 31266
L33065 31022
" />
<path d="M32708 30872
L32690 30853
L32671 30816
L32671 30722
L32690 30685
L32708 30666
L32746 30647
L32783 30647
L32840 30666
L33065 30891
L33065 30647
" />
<path d="M32671 30403
L32671 30366
L32690 30328
L32708 30310
L32746 30291
L32821 30272
L32915 30272
L32990 30291
L33027 30310
L33046 30328
L33065 30366
L33065 30403
L33046 30441
L33027 30460
L32990 30478
L32915 30497
L32821 30497
L32746 30478
L32708 30460
L32690 30441
L32671 30403
" />
<path d="M33998 30825
L33810 30956
" />
<path d="M33998 31050
L33604 31050
L33604 30900
L33623 30863
L33641 30844
L33679 30825
L33735 30825
L33773 30844
L33791 30863
L33810 30900
L33810 31050
" />
<path d="M33604 30694
L33604 30450
L33754 30581
L33754 30525
L33773 30488
L33791 30469
L33829 30450
L33923 30450
L33960 30469
L33979 30488
L33998 30525
L33998 30638
L33979 30675
L33960 30694
" />
<path d="M32114 31287
L32096 31268
L32077 31231
L32077 31137
L32096 31099
L32114 31081
L32152 31062
L32189 31062
L32246 31081
L32471 31306
L32471 31062
" />
<path d="M32114 30912
L32096 30893
L32077 30856
L32077 30762
L32096 30725
L32114 30706
L32152 30687
L32189 30687
L32246 30706
L32471 30931
L32471 30687
" />
<path d="M32077 30443
L32077 30406
L32096 30368
L32114 30350
L32152 30331
L32227 30312
L32321 30312
L32396 30331
L32433 30350
L32452 30368
L32471 30406
L32471 30443
L32452 30481
L32433 30500
L32396 30518
L32321 30537
L32227 30537
L32152 30518
L32114 30500
L32096 30481
L32077 30443
" />
<path d="M31538 30865
L31350 30996
" />
<path d="M31538 31090
L31144 31090
L31144 30940
L31163 30903
L31181 30884
L31219 30865
L31275 30865
L31313 30884
L31331 30903
L31350 30940
L31350 31090
" />
<path d="M31275 30528
L31538 30528
" />
<path d="M31125 30621
L31406 30715
L31406 30471
" />
<path d="M40768 31436
L40750 31417
L40731 31380
L40731 31286
L40750 31248
L40768 31230
L40806 31211
L40843 31211
L40899 31230
L41124 31455
L41124 31211
" />
<path d="M40768 31061
L40750 31042
L40731 31005
L40731 30911
L40750 30873
L40768 30855
L40806 30836
L40843 30836
L40899 30855
L41124 31080
L41124 30836
" />
<path d="M40731 30592
L40731 30555
L40750 30517
L40768 30498
L40806 30480
L40881 30461
L40974 30461
L41049 30480
L41087 30498
L41106 30517
L41124 30555
L41124 30592
L41106 30630
L41087 30648
L41049 30667
L40974 30686
L40881 30686
L40806 30667
L40768 30648
L40750 30630
L40731 30592
" />
<path d="M42058 31014
L41870 31145
" />
<path d="M42058 31239
L41664 31239
L41664 31089
L41683 31051
L41701 31033
L41739 31014
L41795 31014
L41833 31033
L41851 31051
L41870 31089
L41870 31239
" />
<path d="M41664 30658
L41664 30845
L41851 30864
L41833 30845
L41814 30808
L41814 30714
L41833 30676
L41851 30658
L41889 30639
L41983 30639
L42020 30658
L42039 30676
L42058 30714
L42058 30808
L42039 30845
L42020 30864
" />
<path d="M48768 30959
L49031 30959
" />
<path d="M48618 31053
L48900 31147
L48900 30903
" />
<path d="M48637 30791
L48637 30528
L49031 30697
" />
<path d="M48637 30303
L48637 30266
L48656 30228
L48675 30210
L48712 30191
L48787 30172
L48881 30172
L48956 30191
L48993 30210
L49012 30228
L49031 30266
L49031 30303
L49012 30341
L48993 30360
L48956 30378
L48881 30397
L48787 30397
L48712 30378
L48675 30360
L48656 30341
L48637 30303
" />
<path d="M48098 30725
L47910 30856
" />
<path d="M48098 30950
L47704 30950
L47704 30800
L47723 30763
L47741 30744
L47779 30725
L47835 30725
L47873 30744
L47891 30763
L47910 30800
L47910 30950
" />
<path d="M47704 30388
L47704 30463
L47723 30500
L47741 30519
L47798 30556
L47873 30575
L48023 30575
L48060 30556
L48079 30538
L48098 30500
L48098 30425
L48079 30388
L48060 30369
L48023 30350
L47929 30350
L47891 30369
L47873 30388
L47854 30425
L47854 30500
L47873 30538
L47891 30556
L47929 30575
" />
<path d="M43077 31248
L43339 31248
" />
<path d="M42927 31342
L43208 31436
L43208 31192
" />
<path d="M42945 31080
L42945 30817
L43339 30986
" />
<path d="M42945 30592
L42945 30555
L42964 30517
L42983 30498
L43020 30480
L43095 30461
L43189 30461
L43264 30480
L43302 30498
L43320 30517
L43339 30555
L43339 30592
L43320 30630
L43302 30648
L43264 30667
L43189 30686
L43095 30686
L43020 30667
L42983 30648
L42964 30630
L42945 30592
" />
<path d="M44272 31014
L44085 31145
" />
<path d="M44272 31239
L43878 31239
L43878 31089
L43897 31051
L43916 31033
L43953 31014
L44010 31014
L44047 31033
L44066 31051
L44085 31089
L44085 31239
" />
<path d="M43878 30883
L43878 30620
L44272 30789
" />
<path d="M29764 19543
L29764 19768
" />
<path d="M29764 19655
L29371 19655
L29427 19693
L29464 19730
L29483 19768
" />
<path d="M29371 19299
L29371 19262
L29389 19224
L29408 19206
L29446 19187
L29520 19168
L29614 19168
L29689 19187
L29727 19206
L29745 19224
L29764 19262
L29764 19299
L29745 19337
L29727 19356
L29689 19374
L29614 19393
L29520 19393
L29446 19374
L29408 19356
L29389 19337
L29371 19299
" />
<path d="M29764 18999
L29371 18999
" />
<path d="M29764 18774
L29539 18943
" />
<path d="M29371 18774
L29595 18999
" />
<path d="M26340 21044
L26209 20856
" />
<path d="M26115 21044
L26115 20650
L26265 20650
L26302 20669
L26321 20688
L26340 20725
L26340 20781
L26321 20819
L26302 20838
L26265 20856
L26115 20856
" />
<path d="M26452 20650
L26584 21044
L26715 20650
" />
<path d="M27052 21044
L26827 21044
" />
<path d="M26940 21044
L26940 20650
L26902 20706
L26865 20744
L26827 20763
" />
<path d="M29764 12456
L29764 12681
" />
<path d="M29764 12569
L29371 12569
L29427 12606
L29464 12644
L29483 12681
" />
<path d="M29371 12213
L29371 12175
L29389 12138
L29408 12119
L29446 12100
L29520 12081
L29614 12081
L29689 12100
L29727 12119
L29745 12138
L29764 12175
L29764 12213
L29745 12250
L29727 12269
L29689 12288
L29614 12306
L29520 12306
L29446 12288
L29408 12269
L29389 12250
L29371 12213
" />
<path d="M29764 11913
L29371 11913
" />
<path d="M29764 11688
L29539 11856
" />
<path d="M29371 11688
L29595 11913
" />
<path d="M26340 13957
L26209 13770
" />
<path d="M26115 13957
L26115 13563
L26265 13563
L26302 13582
L26321 13601
L26340 13638
L26340 13695
L26321 13732
L26302 13751
L26265 13770
L26115 13770
" />
<path d="M26452 13563
L26584 13957
L26715 13563
" />
<path d="M26827 13601
L26846 13582
L26884 13563
L26977 13563
L27015 13582
L27034 13601
L27052 13638
L27052 13676
L27034 13732
L26809 13957
L27052 13957
" />
<path d="M37638 12456
L37638 12681
" />
<path d="M37638 12569
L37245 12569
L37301 12606
L37338 12644
L37357 12681
" />
<path d="M37245 12213
L37245 12175
L37263 12138
L37282 12119
L37320 12100
L37395 12081
L37488 12081
L37563 12100
L37601 12119
L37619 12138
L37638 12175
L37638 12213
L37619 12250
L37601 12269
L37563 12288
L37488 12306
L37395 12306
L37320 12288
L37282 12269
L37263 12250
L37245 12213
" />
<path d="M37638 11913
L37245 11913
" />
<path d="M37638 11688
L37413 11856
" />
<path d="M37245 11688
L37470 11913
" />
<path d="M34214 13957
L34083 13770
" />
<path d="M33989 13957
L33989 13563
L34139 13563
L34176 13582
L34195 13601
L34214 13638
L34214 13695
L34195 13732
L34176 13751
L34139 13770
L33989 13770
" />
<path d="M34326 13563
L34458 13957
L34589 13563
" />
<path d="M34683 13563
L34926 13563
L34795 13713
L34851 13713
L34889 13732
L34908 13751
L34926 13788
L34926 13882
L34908 13920
L34889 13938
L34851 13957
L34739 13957
L34701 13938
L34683 13920
" />
<path d="M37638 19543
L37638 19768
" />
<path d="M37638 19655
L37245 19655
L37301 19693
L37338 19730
L37357 19768
" />
<path d="M37245 19299
L37245 19262
L37263 19224
L37282 19206
L37320 19187
L37395 19168
L37488 19168
L37563 19187
L37601 19206
L37619 19224
L37638 19262
L37638 19299
L37619 19337
L37601 19356
L37563 19374
L37488 19393
L37395 19393
L37320 19374
L37282 19356
L37263 19337
L37245 19299
" />
<path d="M37638 18999
L37245 18999
" />
<path d="M37638 18774
L37413 18943
" />
<path d="M37245 18774
L37470 18999
" />
<path d="M34214 21044
L34083 20856
" />
<path d="M33989 21044
L33989 20650
L34139 20650
L34176 20669
L34195 20688
L34214 20725
L34214 20781
L34195 20819
L34176 20838
L34139 20856
L33989 20856
" />
<path d="M34326 20650
L34458 21044
L34589 20650
" />
<path d="M34889 20781
L34889 21044
" />
<path d="M34795 20631
L34701 20913
L34945 20913
" />
<path d="M45512 12456
L45512 12681
" />
<path d="M45512 12569
L45119 12569
L45175 12606
L45212 12644
L45231 12681
" />
<path d="M45119 12213
L45119 12175
L45137 12138
L45156 12119
L45194 12100
L45269 12081
L45362 12081
L45437 12100
L45475 12119
L45494 12138
L45512 12175
L45512 12213
L45494 12250
L45475 12269
L45437 12288
L45362 12306
L45269 12306
L45194 12288
L45156 12269
L45137 12250
L45119 12213
" />
<path d="M45512 11913
L45119 11913
" />
<path d="M45512 11688
L45287 11856
" />
<path d="M45119 11688
L45344 11913
" />
<path d="M42088 13957
L41957 13770
" />
<path d="M41863 13957
L41863 13563
L42013 13563
L42050 13582
L42069 13601
L42088 13638
L42088 13695
L42069 13732
L42050 13751
L42013 13770
L41863 13770
" />
<path d="M42200 13563
L42332 13957
L42463 13563
" />
<path d="M42782 13563
L42594 13563
L42575 13751
L42594 13732
L42632 13713
L42725 13713
L42763 13732
L42782 13751
L42800 13788
L42800 13882
L42782 13920
L42763 13938
L42725 13957
L42632 13957
L42594 13938
L42575 13920
" />
<path d="M45512 19543
L45512 19768
" />
<path d="M45512 19655
L45119 19655
L45175 19693
L45212 19730
L45231 19768
" />
<path d="M45119 19299
L45119 19262
L45137 19224
L45156 19206
L45194 19187
L45269 19168
L45362 19168
L45437 19187
L45475 19206
L45494 19224
L45512 19262
L45512 19299
L45494 19337
L45475 19356
L45437 19374
L45362 19393
L45269 19393
L45194 19374
L45156 19356
L45137 19337
L45119 19299
" />
<path d="M45512 18999
L45119 18999
" />
<path d="M45512 18774
L45287 18943
" />
<path d="M45119 18774
L45344 18999
" />
<path d="M42088 21044
L41957 20856
" />
<path d="M41863 21044
L41863 20650
L42013 20650
L42050 20669
L42069 20688
L42088 20725
L42088 20781
L42069 20819
L42050 20838
L42013 20856
L41863 20856
" />
<path d="M42200 20650
L42332 21044
L42463 20650
" />
<path d="M42763 20650
L42688 20650
L42650 20669
L42632 20688
L42594 20744
L42575 20819
L42575 20969
L42594 21006
L42613 21025
L42650 21044
L42725 21044
L42763 21025
L42782 21006
L42800 20969
L42800 20875
L42782 20838
L42763 20819
L42725 20800
L42650 20800
L42613 20819
L42594 20838
L42575 20875
" />
<path d="M53386 12456
L53386 12681
" />
<path d="M53386 12569
L52993 12569
L53049 12606
L53086 12644
L53105 12681
" />
<path d="M52993 12213
L52993 12175
L53011 12138
L53030 12119
L53068 12100
L53143 12081
L53236 12081
L53311 12100
L53349 12119
L53368 12138
L53386 12175
L53386 12213
L53368 12250
L53349 12269
L53311 12288
L53236 12306
L53143 12306
L53068 12288
L53030 12269
L53011 12250
L52993 12213
" />
<path d="M53386 11913
L52993 11913
" />
<path d="M53386 11688
L53161 11856
" />
<path d="M52993 11688
L53218 11913
" />
<path d="M49962 13957
L49831 13770
" />
<path d="M49737 13957
L49737 13563
L49887 13563
L49925 13582
L49943 13601
L49962 13638
L49962 13695
L49943 13732
L49925 13751
L49887 13770
L49737 13770
" />
<path d="M50074 13563
L50206 13957
L50337 13563
" />
<path d="M50431 13563
L50693 13563
L50524 13957
" />
<path d="M53386 19543
L53386 19768
" />
<path d="M53386 19655
L52993 19655
L53049 19693
L53086 19730
L53105 19768
" />
<path d="M52993 19299
L52993 19262
L53011 19224
L53030 19206
L53068 19187
L53143 19168
L53236 19168
L53311 19187
L53349 19206
L53368 19224
L53386 19262
L53386 19299
L53368 19337
L53349 19356
L53311 19374
L53236 19393
L53143 19393
L53068 19374
L53030 19356
L53011 19337
L52993 19299
" />
<path d="M53386 18999
L52993 18999
" />
<path d="M53386 18774
L53161 18943
" />
<path d="M52993 18774
L53218 18999
" />
<path d="M49784 20650
L49915 21044
L50046 20650
" />
<path d="M50234 21044
L50196 21025
L50178 21006
L50159 20969
L50159 20856
L50178 20819
L50196 20800
L50234 20781
L50290 20781
L50328 20800
L50346 20819
L50365 20856
L50365 20969
L50346 21006
L50328 21025
L50290 21044
L50234 21044
" />
<path d="M50590 21044
L50553 21025
L50534 20988
L50534 20650
" />
<path d="M23660 33230
L23885 33230
" />
<path d="M23772 33623
L23772 33230
" />
<path d="M24184 33361
L24184 33623
" />
<path d="M24091 33211
L23997 33492
L24241 33492
" />
<path d="M23463 31497
L23688 31497
" />
<path d="M23575 31891
L23575 31497
" />
<path d="M23819 31891
L23819 31497
L23969 31497
L24006 31516
L24025 31535
L24044 31572
L24044 31629
L24025 31666
L24006 31685
L23969 31704
L23819 31704
" />
<path d="M24419 31891
L24194 31891
" />
<path d="M24306 31891
L24306 31497
L24269 31554
L24231 31591
L24194 31610
" />
<path d="M21460 33210
L21685 33210
" />
<path d="M21572 33603
L21572 33210
" />
<path d="M21797 33247
L21816 33228
L21853 33210
L21947 33210
L21984 33228
L22003 33247
L22022 33285
L22022 33322
L22003 33378
L21778 33603
L22022 33603
" />
<path d="M21263 31477
L21488 31477
" />
<path d="M21375 31871
L21375 31477
" />
<path d="M21619 31871
L21619 31477
L21769 31477
L21806 31496
L21825 31515
L21844 31552
L21844 31609
L21825 31646
L21806 31665
L21769 31684
L21619 31684
" />
<path d="M21994 31515
L22013 31496
L22050 31477
L22144 31477
L22181 31496
L22200 31515
L22219 31552
L22219 31590
L22200 31646
L21975 31871
L22219 31871
" />
<path d="M19380 33330
L19605 33330
" />
<path d="M19492 33723
L19492 33330
" />
<path d="M19923 33330
L19736 33330
L19717 33517
L19736 33498
L19773 33480
L19867 33480
L19904 33498
L19923 33517
L19942 33555
L19942 33648
L19923 33686
L19904 33705
L19867 33723
L19773 33723
L19736 33705
L19717 33686
" />
<path d="M19183 31597
L19408 31597
" />
<path d="M19295 31991
L19295 31597
" />
<path d="M19539 31991
L19539 31597
L19689 31597
L19726 31616
L19745 31635
L19764 31672
L19764 31729
L19745 31766
L19726 31785
L19689 31804
L19539 31804
" />
<path d="M19895 31597
L20139 31597
L20008 31747
L20064 31747
L20101 31766
L20120 31785
L20139 31822
L20139 31916
L20120 31954
L20101 31972
L20064 31991
L19951 31991
L19914 31972
L19895 31954
" />
<path d="M20286 29103
L20286 28710
" />
<path d="M20473 29103
L20473 28710
L20698 29103
L20698 28710
" />
<path d="M21073 28710
L20886 28710
L20867 28897
L20886 28878
L20923 28860
L21017 28860
L21054 28878
L21073 28897
L21092 28935
L21092 29028
L21073 29066
L21054 29085
L21017 29103
L20923 29103
L20886 29085
L20867 29066
" />
<path d="M20183 26977
L20408 26977
" />
<path d="M20295 27371
L20295 26977
" />
<path d="M20539 27371
L20539 26977
L20689 26977
L20726 26996
L20745 27015
L20764 27052
L20764 27109
L20745 27146
L20726 27165
L20689 27184
L20539 27184
" />
<path d="M21101 27109
L21101 27371
" />
<path d="M21008 26959
L20914 27240
L21158 27240
" />
<path d="M24266 29023
L24266 28630
" />
<path d="M24453 29023
L24453 28630
L24678 29023
L24678 28630
" />
<path d="M25034 28761
L25034 29023
" />
<path d="M24941 28611
L24847 28892
L25091 28892
" />
<path d="M24163 26897
L24388 26897
" />
<path d="M24275 27291
L24275 26897
" />
<path d="M24519 27291
L24519 26897
L24669 26897
L24706 26916
L24725 26935
L24744 26972
L24744 27029
L24725 27066
L24706 27085
L24669 27104
L24519 27104
" />
<path d="M25100 26897
L24913 26897
L24894 27085
L24913 27066
L24950 27047
L25044 27047
L25081 27066
L25100 27085
L25119 27122
L25119 27216
L25100 27254
L25081 27272
L25044 27291
L24950 27291
L24913 27272
L24894 27254
" />
<path d="M22286 29043
L22286 28650
" />
<path d="M22473 29043
L22473 28650
L22698 29043
L22698 28650
" />
<path d="M22867 28687
L22886 28668
L22923 28650
L23017 28650
L23054 28668
L23073 28687
L23092 28725
L23092 28762
L23073 28818
L22848 29043
L23092 29043
" />
<path d="M22183 26917
L22408 26917
" />
<path d="M22295 27311
L22295 26917
" />
<path d="M22539 27311
L22539 26917
L22689 26917
L22726 26936
L22745 26955
L22764 26992
L22764 27049
L22745 27086
L22726 27105
L22689 27124
L22539 27124
" />
<path d="M23101 26917
L23026 26917
L22989 26936
L22970 26955
L22933 27011
L22914 27086
L22914 27236
L22933 27274
L22951 27292
L22989 27311
L23064 27311
L23101 27292
L23120 27274
L23139 27236
L23139 27142
L23120 27105
L23101 27086
L23064 27067
L22989 27067
L22951 27086
L22933 27105
L22914 27142
" />
<path d="M52564 28544
L52527 28525
L52508 28506
L52489 28469
L52489 28356
L52508 28319
L52527 28300
L52564 28281
L52620 28281
L52658 28300
L52677 28319
L52695 28356
L52695 28469
L52677 28506
L52658 28525
L52620 28544
L52564 28544
" />
<path d="M53033 28281
L53033 28544
" />
<path d="M52864 28281
L52864 28488
L52883 28525
L52920 28544
L52977 28544
L53014 28525
L53033 28506
" />
<path d="M53164 28281
L53314 28281
" />
<path d="M53220 28150
L53220 28488
L53239 28525
L53277 28544
L53314 28544
" />
<path d="M53652 28544
L53427 28544
" />
<path d="M53539 28544
L53539 28150
L53502 28206
L53464 28244
L53427 28263
" />
<path d="M52574 26418
L52799 26418
" />
<path d="M52686 26811
L52686 26418
" />
<path d="M52930 26811
L52930 26418
L53080 26418
L53117 26437
L53136 26455
L53155 26493
L53155 26549
L53136 26586
L53117 26605
L53080 26624
L52930 26624
" />
<path d="M53286 26418
L53548 26418
L53380 26811
" />
<path d="M52564 31142
L52527 31123
L52508 31105
L52489 31067
L52489 30955
L52508 30917
L52527 30898
L52564 30880
L52620 30880
L52658 30898
L52677 30917
L52695 30955
L52695 31067
L52677 31105
L52658 31123
L52620 31142
L52564 31142
" />
<path d="M53033 30880
L53033 31142
" />
<path d="M52864 30880
L52864 31086
L52883 31123
L52920 31142
L52977 31142
L53014 31123
L53033 31105
" />
<path d="M53164 30880
L53314 30880
" />
<path d="M53220 30748
L53220 31086
L53239 31123
L53277 31142
L53314 31142
" />
<path d="M53427 30786
L53445 30767
L53483 30748
L53577 30748
L53614 30767
L53633 30786
L53652 30823
L53652 30861
L53633 30917
L53408 31142
L53652 31142
" />
<path d="M52574 29016
L52799 29016
" />
<path d="M52686 29410
L52686 29016
" />
<path d="M52930 29410
L52930 29016
L53080 29016
L53117 29035
L53136 29054
L53155 29091
L53155 29147
L53136 29185
L53117 29204
L53080 29222
L52930 29222
" />
<path d="M53380 29185
L53342 29166
L53323 29147
L53305 29110
L53305 29091
L53323 29054
L53342 29035
L53380 29016
L53455 29016
L53492 29035
L53511 29054
L53530 29091
L53530 29110
L53511 29147
L53492 29166
L53455 29185
L53380 29185
L53342 29204
L53323 29222
L53305 29260
L53305 29335
L53323 29372
L53342 29391
L53380 29410
L53455 29410
L53492 29391
L53511 29372
L53530 29335
L53530 29260
L53511 29222
L53492 29204
L53455 29185
" />
<path d="M26081 33257
L26137 33276
L26156 33295
L26175 33332
L26175 33388
L26156 33426
L26137 33445
L26100 33463
L25950 33463
L25950 33070
L26081 33070
L26118 33088
L26137 33107
L26156 33145
L26156 33182
L26137 33220
L26118 33238
L26081 33257
L25950 33257
" />
<path d="M26512 33463
L26512 33257
L26493 33220
L26456 33201
L26381 33201
L26343 33220
" />
<path d="M26512 33445
L26475 33463
L26381 33463
L26343 33445
L26325 33407
L26325 33370
L26343 33332
L26381 33313
L26475 33313
L26512 33295
" />
<path d="M26643 33201
L26793 33201
" />
<path d="M26700 33070
L26700 33407
L26718 33445
L26756 33463
L26793 33463
" />
<path d="M26868 33201
L27018 33201
" />
<path d="M26924 33070
L26924 33407
L26943 33445
L26981 33463
L27018 33463
" />
<path d="M27149 33313
L27449 33313
" />
<path d="M27299 33463
L27299 33163
" />
<path d="M26203 31337
L26428 31337
" />
<path d="M26315 31731
L26315 31337
" />
<path d="M26559 31731
L26559 31337
L26709 31337
L26746 31356
L26765 31375
L26784 31412
L26784 31469
L26765 31506
L26746 31525
L26709 31544
L26559 31544
" />
<path d="M26971 31731
L27046 31731
L27084 31712
L27103 31694
L27140 31637
L27159 31562
L27159 31412
L27140 31375
L27121 31356
L27084 31337
L27009 31337
L26971 31356
L26953 31375
L26934 31412
L26934 31506
L26953 31544
L26971 31562
L27009 31581
L27084 31581
L27121 31562
L27140 31544
L27159 31506
" />
<path d="M26101 28897
L26157 28916
L26176 28935
L26195 28972
L26195 29028
L26176 29066
L26157 29085
L26120 29103
L25970 29103
L25970 28710
L26101 28710
L26138 28728
L26157 28747
L26176 28785
L26176 28822
L26157 28860
L26138 28878
L26101 28897
L25970 28897
" />
<path d="M26532 29103
L26532 28897
L26513 28860
L26476 28841
L26401 28841
L26363 28860
" />
<path d="M26532 29085
L26495 29103
L26401 29103
L26363 29085
L26345 29047
L26345 29010
L26363 28972
L26401 28953
L26495 28953
L26532 28935
" />
<path d="M26663 28841
L26813 28841
" />
<path d="M26720 28710
L26720 29047
L26738 29085
L26776 29103
L26813 29103
" />
<path d="M26888 28841
L27038 28841
" />
<path d="M26944 28710
L26944 29047
L26963 29085
L27001 29103
L27038 29103
" />
<path d="M27169 28953
L27469 28953
" />
<path d="M26035 26977
L26260 26977
" />
<path d="M26148 27371
L26148 26977
" />
<path d="M26391 27371
L26391 26977
L26541 26977
L26579 26996
L26598 27015
L26616 27052
L26616 27109
L26598 27146
L26579 27165
L26541 27184
L26391 27184
" />
<path d="M26991 27371
L26766 27371
" />
<path d="M26879 27371
L26879 26977
L26841 27034
L26804 27071
L26766 27090
" />
<path d="M27235 26977
L27273 26977
L27310 26996
L27329 27015
L27348 27052
L27366 27127
L27366 27221
L27348 27296
L27329 27334
L27310 27352
L27273 27371
L27235 27371
L27198 27352
L27179 27334
L27160 27296
L27141 27221
L27141 27127
L27160 27052
L27179 27015
L27198 26996
L27235 26977
" />
<path d="M38528 31645
L38134 31645
L38134 31495
L38153 31458
L38172 31439
L38209 31420
L38266 31420
L38303 31439
L38322 31458
L38341 31495
L38341 31645
" />
<path d="M38491 31027
L38509 31045
L38528 31102
L38528 31139
L38509 31195
L38472 31233
L38434 31252
L38359 31270
L38303 31270
L38228 31252
L38191 31233
L38153 31195
L38134 31139
L38134 31102
L38153 31045
L38172 31027
" />
<path d="M38528 30839
L38528 30764
L38509 30727
L38491 30708
L38434 30670
L38359 30652
L38209 30652
L38172 30670
L38153 30689
L38134 30727
L38134 30802
L38153 30839
L38172 30858
L38209 30877
L38303 30877
L38341 30858
L38359 30839
L38378 30802
L38378 30727
L38359 30689
L38341 30670
L38303 30652
" />
<path d="M38134 30408
L38134 30371
L38153 30333
L38172 30314
L38209 30296
L38284 30277
L38378 30277
L38453 30296
L38491 30314
L38509 30333
L38528 30371
L38528 30408
L38509 30446
L38491 30464
L38453 30483
L38378 30502
L38284 30502
L38209 30483
L38172 30464
L38153 30446
L38134 30408
" />
<path d="M38134 30033
L38134 29996
L38153 29958
L38172 29939
L38209 29921
L38284 29902
L38378 29902
L38453 29921
L38491 29939
L38509 29958
L38528 29996
L38528 30033
L38509 30071
L38491 30089
L38453 30108
L38378 30127
L38284 30127
L38209 30108
L38172 30089
L38153 30071
L38134 30033
" />
<path d="M36217 31083
L36536 31083
L36573 31064
L36592 31045
L36611 31008
L36611 30933
L36592 30895
L36573 30877
L36536 30858
L36217 30858
" />
<path d="M36611 30464
L36611 30689
" />
<path d="M36611 30577
L36217 30577
L36273 30614
L36311 30652
L36329 30689
" />
<path d="M52692 25649
L52654 25630
L52598 25630
L52542 25649
L52504 25687
L52485 25724
L52467 25799
L52467 25855
L52485 25930
L52504 25968
L52542 26005
L52598 26024
L52635 26024
L52692 26005
L52710 25987
L52710 25855
L52635 25855
" />
<path d="M52879 26024
L52879 25630
L53104 26024
L53104 25630
" />
<path d="M53292 26024
L53292 25630
L53385 25630
L53442 25649
L53479 25687
L53498 25724
L53517 25799
L53517 25855
L53498 25930
L53479 25968
L53442 26005
L53385 26024
L53292 26024
" />
<path d="M52307 23898
L52532 23898
" />
<path d="M52420 24292
L52420 23898
" />
<path d="M52664 24292
L52664 23898
L52814 23898
L52851 23917
L52870 23936
L52889 23973
L52889 24029
L52870 24067
L52851 24086
L52814 24104
L52664 24104
" />
<path d="M53263 24292
L53038 24292
" />
<path d="M53151 24292
L53151 23898
L53113 23954
L53076 23992
L53038 24011
" />
<path d="M53638 24292
L53413 24292
" />
<path d="M53526 24292
L53526 23898
L53488 23954
L53451 23992
L53413 24011
" />
<path d="M51347 27759
L51347 27984
" />
<path d="M51347 27871
L50953 27871
L51009 27909
L51047 27946
L51066 27984
" />
<path d="M51347 27590
L50953 27590
" />
<path d="M51197 27553
L51347 27440
" />
<path d="M51084 27440
L51234 27590
" />
<path d="M50414 27778
L50226 27909
" />
<path d="M50414 28003
L50020 28003
L50020 27853
L50039 27815
L50058 27796
L50095 27778
L50151 27778
L50189 27796
L50208 27815
L50226 27853
L50226 28003
" />
<path d="M50189 27553
L50170 27590
L50151 27609
L50114 27628
L50095 27628
L50058 27609
L50039 27590
L50020 27553
L50020 27478
L50039 27440
L50058 27422
L50095 27403
L50114 27403
L50151 27422
L50170 27440
L50189 27478
L50189 27553
L50208 27590
L50226 27609
L50264 27628
L50339 27628
L50376 27609
L50395 27590
L50414 27553
L50414 27478
L50395 27440
L50376 27422
L50339 27403
L50264 27403
L50226 27422
L50208 27440
L50189 27478
" />
<path d="M51287 32000
L51062 32000
" />
<path d="M51175 32000
L51175 31607
L51137 31663
L51100 31700
L51062 31719
" />
<path d="M51456 32000
L51456 31607
" />
<path d="M51494 31850
L51606 32000
" />
<path d="M51606 31738
L51456 31888
" />
<path d="M51269 32934
L51137 32746
" />
<path d="M51044 32934
L51044 32540
L51194 32540
L51231 32559
L51250 32577
L51269 32615
L51269 32671
L51250 32709
L51231 32727
L51194 32746
L51044 32746
" />
<path d="M51456 32934
L51531 32934
L51568 32915
L51587 32896
L51625 32840
L51643 32765
L51643 32615
L51625 32577
L51606 32559
L51568 32540
L51494 32540
L51456 32559
L51437 32577
L51419 32615
L51419 32709
L51437 32746
L51456 32765
L51494 32784
L51568 32784
L51606 32765
L51625 32746
L51643 32709
" />
<circle cx="54175.8" cy="8716.64" r="656.168" /> 
<path d="M53191 8716
L55160 8716
" />
<path d="M54175 7732
L54175 9700
" />
<circle cx="19155.9" cy="8805.26" r="656.168" /> 
<path d="M18171 8805
L20140 8805
" />
<path d="M19155 7821
L19155 9789
" />
<circle cx="19171.9" cy="37651.1" r="656.168" /> 
<path d="M18187 37651
L20156 37651
" />
<path d="M19171 36666
L19171 38635
" />
<circle cx="54135.7" cy="37665.3" r="656.168" /> 
<path d="M53151 37665
L55119 37665
" />
<path d="M54135 36681
L54135 38649
" />
</g> 
</svg>
